<?xml version="1.0" encoding="UTF-8" standalone="no"?>
<!-- Generator: Adobe Illustrator 15.0.1, SVG Export Plug-In . SVG Version: 6.00 Build 0)  -->

<svg
   xmlns:dc="http://purl.org/dc/elements/1.1/"
   xmlns:cc="http://creativecommons.org/ns#"
   xmlns:rdf="http://www.w3.org/1999/02/22-rdf-syntax-ns#"
   xmlns:svg="http://www.w3.org/2000/svg"
   xmlns="http://www.w3.org/2000/svg"
   xmlns:sodipodi="http://sodipodi.sourceforge.net/DTD/sodipodi-0.dtd"
   xmlns:inkscape="http://www.inkscape.org/namespaces/inkscape"
   version="1.1"
   id="Ebene_1"
   x="0px"
   y="0px"
   width="290"
   height="245"
   viewBox="0 0 290 245"
   enable-background="new 0 0 841.89 245"
   xml:space="preserve"
   inkscape:version="0.91 r13725"
   sodipodi:docname="htwg-logo-small.svg"><metadata
     id="metadata147"><rdf:RDF><cc:Work
         rdf:about=""><dc:format>image/svg+xml</dc:format><dc:type
           rdf:resource="http://purl.org/dc/dcmitype/StillImage" /><dc:title></dc:title></cc:Work></rdf:RDF></metadata><defs
     id="defs145" /><sodipodi:namedview
     pagecolor="#ffffff"
     bordercolor="#666666"
     borderopacity="1"
     objecttolerance="10"
     gridtolerance="10"
     guidetolerance="10"
     inkscape:pageopacity="0"
     inkscape:pageshadow="2"
     inkscape:window-width="1865"
     inkscape:window-height="1155"
     id="namedview143"
     showgrid="false"
     inkscape:zoom="0.47274584"
     inkscape:cx="420.94501"
     inkscape:cy="122.5"
     inkscape:window-x="55"
     inkscape:window-y="1"
     inkscape:window-maximized="1"
     inkscape:current-layer="g3" /><g
     id="g3"><g
       id="g5"><path
         d="m 268.364,179.971 0,49.519 -43.929,0 0,-9.004 -3.407,0 c -2.206,6.522 -5.223,8.444 -9.969,8.952 -2.581,0.223 -11.73,0.287 -24.271,0.306 -9.382,0.025 -19.197,0 -23.485,-0.228 -5.16,-0.281 -9.337,-3.975 -9.707,-8.721 -0.058,-0.465 -0.146,-3.87 -0.146,-3.87 -0.138,-6.816 -0.23,-21.68 -0.23,-38.901 0,-17.232 0.092,-32.08 0.23,-38.9 0,0 0.11,-3.585 0.135,-3.869 0.34,-4.756 4.52,-8.55 9.718,-8.77 3.065,-0.253 23.086,-0.441 47.336,-0.441 25.217,0 45.858,0.201 47.606,0.478 4.796,0.408 8.608,3.856 9.195,8.217 0.286,1.832 0.815,17.256 0.871,38.019 l -10.761,0 c -2.184,0 -3.949,1.612 -3.949,3.608 0,2.003 1.765,3.606 3.949,3.606 l 10.814,0 z"
         id="path7"
         inkscape:connector-curvature="0"
         style="fill:#009cdd" /><path
         d="m 145.348,126.73 -12.063,102.785 -35.779,0 c -7.362,0 -11.418,-1.067 -14.183,-10.261 l -3.391,0 c -2.761,9.197 -6.824,10.261 -14.186,10.261 l -36.361,0 -12.042,-102.785 54.299,0 0,10.428 c 0,2.175 1.765,3.947 3.932,3.947 2.193,0 3.958,-1.772 3.958,-3.947 l 0,-6.89 4.139,0 0,6.89 c 0,2.175 1.765,3.947 3.949,3.947 2.175,0 3.946,-1.772 3.946,-3.947 l 0,-10.428 53.782,0 z"
         id="path9"
         inkscape:connector-curvature="0"
         style="fill:#009cdd" /></g><polygon
       points="161.363,115.744 161.363,62.955 150.742,62.955 150.742,12.935 273.395,12.935 273.395,62.955 262.312,62.955 262.312,115.744 "
       id="polygon11"
       style="fill:#009cdd" /><g
       id="g13"><path
         d="m 85.552,12.935 0,10.015 c 0,2.181 -1.774,3.947 -3.954,3.947 -2.184,0 -3.945,-1.767 -3.945,-3.947 l 0,-10.015 -58.806,0 0,102.78 58.807,0 0,-9.73 c 0,-2.185 1.761,-3.947 3.945,-3.947 2.18,0 3.954,1.763 3.954,3.947 l 0,9.73 58.394,0 0,-102.78 -58.395,0 z"
         id="path15"
         inkscape:connector-curvature="0"
         style="fill:#009cdd" /></g></g></svg>